<?xml version="1.0" encoding="UTF-8" standalone="no"?>
<!-- Created with Inkscape (http://www.inkscape.org/) -->

<svg
   xmlns:dc="http://purl.org/dc/elements/1.1/"
   xmlns:cc="http://creativecommons.org/ns#"
   xmlns:rdf="http://www.w3.org/1999/02/22-rdf-syntax-ns#"
   xmlns:svg="http://www.w3.org/2000/svg"
   xmlns="http://www.w3.org/2000/svg"
   xmlns:sodipodi="http://sodipodi.sourceforge.net/DTD/sodipodi-0.dtd"
   xmlns:inkscape="http://www.inkscape.org/namespaces/inkscape"
   id="svg2"
   version="1.1"
   inkscape:version="0.91 r13725"
   width="930.35358"
   height="1160.849"
   viewBox="0 0 930.35358 1160.8489"
   sodipodi:docname="screamingudder-rot-teeth.svg"
   inkscape:export-filename="/Users/tobiasrichter/screamingudder.png"
   inkscape:export-xdpi="5.0050688"
   inkscape:export-ydpi="5.0050688">
  <metadata
     id="metadata8">
    <rdf:RDF>
      <cc:Work
         rdf:about="">
        <dc:format>image/svg+xml</dc:format>
        <dc:type
           rdf:resource="http://purl.org/dc/dcmitype/StillImage" />
        <dc:title></dc:title>
      </cc:Work>
    </rdf:RDF>
  </metadata>
  <defs
     id="defs6" />
  <sodipodi:namedview
     pagecolor="#ffffff"
     bordercolor="#666666"
     borderopacity="1"
     objecttolerance="10"
     gridtolerance="10"
     guidetolerance="10"
     inkscape:pageopacity="0"
     inkscape:pageshadow="2"
     inkscape:window-width="1445"
     inkscape:window-height="990"
     id="namedview4"
     showgrid="false"
     fit-margin-top="9"
     fit-margin-left="9"
     fit-margin-right="9"
     fit-margin-bottom="9"
     inkscape:zoom="0.48"
     inkscape:cx="655.93335"
     inkscape:cy="375.71831"
     inkscape:window-x="3468"
     inkscape:window-y="149"
     inkscape:window-maximized="0"
     inkscape:current-layer="layer1" />
  <g
     inkscape:groupmode="layer"
     id="layer1"
     inkscape:label="Layer 1"
     style="display:inline">
    <path
       style="fill:#ffd0f9;fill-opacity:1;fill-rule:evenodd;stroke:#e078b8;stroke-width:18.20000076;stroke-linecap:round;stroke-linejoin:round;stroke-miterlimit:4;stroke-dasharray:none;stroke-opacity:1"
       d="m 234.19763,911.85769 c 51.91677,110.37771 146.70247,189.48541 261.38247,220.78981 114.67999,31.3043 312.65086,-40.8082 368.45901,-187.63929 55.80815,-146.83107 36.01866,-338.54226 -3.75328,-429.27937 -39.77194,-90.73711 -81.2108,-133.34201 -81.2108,-133.34201 0,0 -14.29398,-361.748971 -68.48188,-364.275374 -54.18789,-2.526406 -25.21213,338.928504 -25.21213,338.928504 -46.41007,-4.38567 -72.76032,0.2858 -103.18705,3.11673 0,0 -71.18595,-344.488882 -115.90926,-330.850321 -44.72331,13.638562 20.06709,348.480991 20.06709,348.480991 0,0 -53.95487,10.27138 -96.18699,41.27331 0,0 -127.58753,-311.4431 -169.47531,-291.6101 -41.88778,19.833 79.18295,355.82697 79.18295,355.82697 -42.15197,35.98447 -33.2573,31.89318 -67.9049,80.79072 0,0 -162.783598,-272.46227 -205.911608,-239.89595 -43.128018,32.56631 159.395498,338.07511 159.395498,338.07511 0,0 -3.17058,139.23253 48.74619,249.61027 z"
       id="path3338"
       inkscape:connector-curvature="0"
       sodipodi:nodetypes="zzzzczcczcczcczcz" />
  </g>
  <g
     inkscape:groupmode="layer"
     id="layer2"
     inkscape:label="Layer 2"
     style="display:inline">
    <path
       style="fill:#f9f9f9;fill-opacity:1;fill-rule:evenodd;stroke:#000000;stroke-width:13.90180683;stroke-linecap:butt;stroke-linejoin:miter;stroke-miterlimit:4;stroke-dasharray:none;stroke-opacity:1"
       d="m 543.45816,659.78182 c 5.62916,-24.14572 -29.64938,-176.51544 -109.96662,-162.76254 -80.31725,13.7529 -40.41164,197.0909 -22.86373,212.7415 21.14214,18.85624 132.83035,-49.97896 132.83035,-49.97896 z"
       id="path4144-2"
       inkscape:connector-curvature="0"
       sodipodi:nodetypes="szss" />
    <path
       style="fill:#f9f9f9;fill-opacity:1;fill-rule:evenodd;stroke:#000000;stroke-width:13.90180683;stroke-linecap:butt;stroke-linejoin:miter;stroke-miterlimit:4;stroke-dasharray:none;stroke-opacity:1"
       d="m 541.78687,666.16767 c 5.62916,-24.14572 -29.64938,-176.51544 -109.96662,-162.76254 -80.31725,13.7529 -40.41164,197.0909 -22.86373,212.7415 21.14214,18.85624 132.83035,-49.97896 132.83035,-49.97896 z"
       id="path4144"
       inkscape:connector-curvature="0"
       sodipodi:nodetypes="szss" />
    <path
       style="fill:#f9f9f9;fill-opacity:1;fill-rule:evenodd;stroke:#000000;stroke-width:13.60000038;stroke-linecap:butt;stroke-linejoin:miter;stroke-miterlimit:4;stroke-dasharray:none;stroke-opacity:1"
       d="m 612.44083,653.90964 c -11.6557,-20.78837 -48.33816,-186.65392 28.73242,-194.64522 77.07058,-7.9913 117.3168,165.36246 103.28009,181.54016 -7.48966,8.63205 -132.01251,13.10506 -132.01251,13.10506 z"
       id="path4144-8"
       inkscape:connector-curvature="0"
       sodipodi:nodetypes="szss" />
    <ellipse
       style="opacity:0.88300003;fill:none;fill-opacity:1;stroke:#000000;stroke-width:29.89999962;stroke-linecap:round;stroke-linejoin:round;stroke-miterlimit:4;stroke-dasharray:none;stroke-opacity:1"
       id="path4172"
       cx="384.88205"
       cy="693.98383"
       rx="27.057957"
       ry="28.924023"
       transform="matrix(0.99117226,-0.13258039,0.13258039,0.99117226,0,0)" />
    <path
       style="fill:#f9f9f9;fill-opacity:1;fill-rule:evenodd;stroke:#000000;stroke-width:13.60000038;stroke-linecap:butt;stroke-linejoin:miter;stroke-miterlimit:4;stroke-dasharray:none;stroke-opacity:1"
       d="m 606.68337,658.23111 c -11.6557,-20.78837 -48.33816,-186.65392 28.73242,-194.64522 77.07058,-7.9913 117.3168,165.36246 103.28009,181.54016 -7.48966,8.63205 -132.01251,13.10506 -132.01251,13.10506 z"
       id="path4144-8-4"
       inkscape:connector-curvature="0"
       sodipodi:nodetypes="szss" />
    <ellipse
       style="opacity:0.88300003;fill:none;fill-opacity:1;stroke:#000000;stroke-width:29.89999962;stroke-linecap:round;stroke-linejoin:round;stroke-miterlimit:4;stroke-dasharray:none;stroke-opacity:1"
       id="path4172-1"
       cx="569.08307"
       cy="678.65759"
       rx="27.057957"
       ry="28.924023"
       transform="matrix(0.99117226,-0.13258039,0.13258039,0.99117226,0,0)" />
    <path
       style="display:inline;fill:#a2a2a2;fill-opacity:1;fill-rule:evenodd;stroke:#000000;stroke-width:17;stroke-linecap:butt;stroke-linejoin:miter;stroke-miterlimit:4;stroke-dasharray:none;stroke-opacity:1"
       d="m 495.31287,781.23087 c -34.74126,27.93462 -40.89098,82.50232 -26.78041,137.66126 14.11056,55.15895 42.3271,97.48597 72.0863,120.24007 29.7592,22.7541 208.97068,-24.6525 212.98074,-76.21168 4.01004,-51.55925 -20.76953,-50.58924 -28.22169,-102.90036 -7.45215,-52.31112 2.48583,-33.23211 -6.1308,-91.77827 -8.61663,-58.54617 -189.19286,-14.94565 -223.93414,12.98898 z"
       id="path4142"
       inkscape:connector-curvature="0"
       sodipodi:nodetypes="zzzzzzz" />
    <ellipse
       style="display:inline;opacity:1;fill:#ffffff;fill-opacity:1;stroke:none;stroke-width:12.60000038;stroke-linecap:round;stroke-linejoin:round;stroke-miterlimit:4;stroke-dasharray:none;stroke-opacity:1"
       id="path4915"
       cx="103.52448"
       cy="1181.0411"
       rx="96.354034"
       ry="18.634161"
       transform="matrix(0.96648351,-0.25672869,0.45372477,0.89114187,0,0)" />
  </g>
  <g
     inkscape:groupmode="layer"
     id="layer3"
     inkscape:label="Layer 3"
     style="display:inline">
    <path
       style="fill:#ffffff;fill-opacity:1;fill-rule:evenodd;stroke:#000000;stroke-width:8.16306496;stroke-linecap:round;stroke-linejoin:round;stroke-miterlimit:4;stroke-dasharray:none;stroke-opacity:1"
       d="m 731.33963,996.51139 c 0,0 1.17861,-42.08584 -25.38227,-38.25821 -26.56089,3.82762 -16.88333,59.36972 -16.88333,59.36972 0,0 -10.46518,-50.86564 -35.87516,-44.94491 -25.40996,5.92073 -10.88042,63.82421 -10.88042,63.82421 0,0 -6.66352,-60.92574 -35.35696,-55.59247 -28.69344,5.33327 -20.9549,65.38147 -20.9549,65.38147 0,0 -5.94681,-59.62993 -27.04531,-51.81232 -21.09853,7.81762 -17.54953,46.84982 -17.54953,46.84982"
       id="path4855-4"
       inkscape:connector-curvature="0"
       sodipodi:nodetypes="czczczczc"
       inkscape:transform-center-x="28.210768"
       inkscape:transform-center-y="-4.8052094" />
    <ellipse
       style="opacity:1;fill:#ffffff;fill-opacity:1;stroke:none;stroke-width:12.60000038;stroke-linecap:round;stroke-linejoin:round;stroke-miterlimit:4;stroke-dasharray:none;stroke-opacity:1"
       id="path4894"
       cx="389.84738"
       cy="846.63379"
       rx="103.34399"
       ry="18.209019"
       transform="matrix(0.99148485,-0.13022206,0.24722089,0.96895915,0,0)" />
    <path
       style="fill:#ffffff;fill-opacity:1;fill-rule:evenodd;stroke:#000000;stroke-width:8.16306496;stroke-linecap:round;stroke-linejoin:round;stroke-miterlimit:4;stroke-dasharray:none;stroke-opacity:1"
       d="m 480.50323,791.8766 c 0,0 4.32473,50.72463 39.71813,42.60808 35.3934,-8.11654 8.1674,-67.32249 8.1674,-67.32249 0,0 18.15157,87.41499 54.59398,77.25646 36.44241,-10.15853 7.59947,-90.60502 7.59947,-90.60502 0,0 18.62632,84.98884 52.07308,75.26358 33.44675,-9.72525 11.16672,-85.6897 11.16672,-85.6897 0,0 12.86966,62.51363 34.37476,55.89602 21.50511,-6.6176 18.41656,-52.14126 18.41656,-52.14126"
       id="path4855"
       inkscape:connector-curvature="0"
       sodipodi:nodetypes="czczczczc" />
  </g>
  <g
     inkscape:groupmode="layer"
     id="layer4"
     inkscape:label="Layer 4"
     style="display:inline">
    <path
       style="display:inline;fill:none;fill-opacity:1;fill-rule:evenodd;stroke:#000000;stroke-width:13.60000038;stroke-linecap:butt;stroke-linejoin:miter;stroke-miterlimit:4;stroke-dasharray:none;stroke-opacity:1"
       d="m 491.61151,786.5112 c -34.74126,27.93462 -40.89098,82.50233 -26.78041,137.66127 14.11056,55.15895 42.3271,97.48593 72.08628,120.23993 29.7592,22.7541 208.9707,-24.6524 212.9808,-76.21154 4.01,-51.55925 -20.7696,-50.58924 -28.2217,-102.90036 -7.4522,-52.31113 2.4858,-33.23212 -6.1308,-91.77828 -8.6167,-58.54617 -189.1929,-14.94565 -223.93417,12.98898 z"
       id="path4142-0"
       inkscape:connector-curvature="0"
       sodipodi:nodetypes="zzzzzzz" />
  </g>
</svg>
